<?xml version="1.0" encoding="iso-8859-1"?>
<!-- Generator: Adobe Illustrator 17.1.0, SVG Export Plug-In . SVG Version: 6.00 Build 0)  -->
<!DOCTYPE svg PUBLIC "-//W3C//DTD SVG 1.1//EN" "http://www.w3.org/Graphics/SVG/1.1/DTD/svg11.dtd">
<svg version="1.1" id="Capa_1" xmlns="http://www.w3.org/2000/svg" xmlns:xlink="http://www.w3.org/1999/xlink" x="0px" y="0px"
	 viewBox="0 0 186.907 186.907" style="enable-background:new 0 0 186.907 186.907;" xml:space="preserve">
<path d="M83.703,173.672c0,5.721-4.654,10.375-10.375,10.375s-10.375-4.654-10.375-10.375s4.654-10.375,10.375-10.375
	S83.703,167.951,83.703,173.672z M176.532,58.346c-5.721,0-10.375,4.654-10.375,10.375s4.654,10.375,10.375,10.375
	s10.375-4.654,10.375-10.375S182.253,58.346,176.532,58.346z M181.422,34.955c-3.382,10.437-10.548,21.486-20.177,31.114
	l-96.899,96.9c-13.746,13.746-30.34,22.285-43.306,22.285c-6.194,0-11.421-1.952-15.114-5.646l-0.351-0.351
	c-11.715-11.714-4.406-37.375,16.639-58.42l96.9-96.899c13.746-13.747,30.34-22.286,43.306-22.286
	c6.194,0,11.421,1.952,15.114,5.646l0.351,0.351C183.918,13.68,185.173,23.378,181.422,34.955z M40.022,138.088
	c0-2.646-2.145-4.792-4.792-4.792c-2.646,0-4.792,2.146-4.792,4.792c0,2.646,2.145,4.792,4.792,4.792
	C37.877,142.88,40.022,140.735,40.022,138.088z M51.439,149.505c0-2.646-2.145-4.792-4.792-4.792c-2.646,0-4.792,2.145-4.792,4.792
	c0,2.646,2.145,4.792,4.792,4.792C49.294,154.297,51.439,152.151,51.439,149.505z M53.397,124.713c0-2.646-2.145-4.792-4.792-4.792
	c-2.646,0-4.792,2.146-4.792,4.792c0,2.646,2.145,4.792,4.792,4.792C51.252,129.505,53.397,127.36,53.397,124.713z M64.814,136.13
	c0-2.646-2.145-4.792-4.792-4.792c-2.646,0-4.792,2.145-4.792,4.792c0,2.646,2.145,4.792,4.792,4.792
	C62.669,140.922,64.814,138.776,64.814,136.13z M132.772,45.338c0-2.646-2.145-4.792-4.792-4.792c-2.646,0-4.792,2.146-4.792,4.792
	c0,2.646,2.145,4.792,4.792,4.792C130.627,50.13,132.772,47.985,132.772,45.338z M144.189,56.755c0-2.646-2.145-4.792-4.792-4.792
	c-2.646,0-4.792,2.145-4.792,4.792c0,2.646,2.145,4.792,4.792,4.792C142.044,61.547,144.189,59.401,144.189,56.755z M146.147,31.963
	c0-2.646-2.145-4.792-4.792-4.792c-2.646,0-4.792,2.146-4.792,4.792c0,2.646,2.145,4.792,4.792,4.792
	C144.002,36.755,146.147,34.61,146.147,31.963z M157.564,43.38c0-2.646-2.145-4.792-4.792-4.792c-2.646,0-4.792,2.145-4.792,4.792
	c0,2.646,2.145,4.792,4.792,4.792C155.419,48.172,157.564,46.026,157.564,43.38z"/>
<g>
</g>
<g>
</g>
<g>
</g>
<g>
</g>
<g>
</g>
<g>
</g>
<g>
</g>
<g>
</g>
<g>
</g>
<g>
</g>
<g>
</g>
<g>
</g>
<g>
</g>
<g>
</g>
<g>
</g>
</svg>
