 <svg version="1.0" xmlns="http://www.w3.org/2000/svg" width="700.000000pt" height="700.000000pt" viewBox="0 0 700.000000 700.000000" preserveAspectRatio="xMidYMid meet">
<metadata>
Created by potrace 1.12, written by Peter Selinger 2001-2015
</metadata>
<g transform="translate(0.000000,700.000000) scale(0.100000,-0.100000)" fill="#000000" stroke="none">
<path d="M256 4320 c-60 -16 -113 -50 -143 -93 -27 -39 -28 -44 -31 -201 -2
-105 1 -175 9 -204 16 -56 67 -135 173 -266 47 -58 98 -129 113 -158 26 -49
28 -61 28 -174 0 -136 -7 -154 -60 -154 -55 0 -60 14 -63 207 l-4 173 -99 0
-100 0 3 -203 c3 -202 3 -204 30 -244 19 -28 45 -50 85 -70 51 -24 69 -28 148
-28 115 0 188 30 232 96 28 42 28 44 31 225 4 218 4 218 -114 373 -175 230
-194 257 -205 289 -7 20 -10 77 -7 139 4 115 13 133 69 133 48 0 54 -19 58
-192 l3 -158 100 0 99 0 -3 188 c-3 186 -3 189 -30 229 -38 58 -114 93 -210
98 -40 2 -90 0 -112 -5z"></path>
<path d="M4038 4290 c-50 -39 -28 -81 51 -97 51 -10 72 -33 52 -57 -21 -25
-76 -20 -99 9 -24 30 -32 31 -32 6 0 -47 118 -72 153 -33 38 42 11 85 -60 97
-76 12 -87 65 -13 65 29 0 43 -5 52 -20 16 -25 28 -26 28 -1 0 26 -22 42 -67
48 -29 4 -44 0 -65 -17z"></path>
<path d="M4552 4295 c-45 -20 -68 -75 -53 -126 14 -45 48 -69 100 -69 76 0
116 37 114 104 -1 47 -19 75 -58 92 -42 17 -61 17 -103 -1z m102 -36 c56 -44
23 -129 -51 -129 -49 0 -73 23 -73 71 0 42 35 79 75 79 12 0 34 -9 49 -21z"></path>
<path d="M685 4288 c-3 -7 -4 -314 -3 -683 l3 -670 103 -3 102 -3 0 337 c0
186 2 335 5 332 4 -4 76 -329 141 -640 l6 -28 104 0 c76 0 104 3 104 13 0 6
-34 174 -76 373 l-77 361 76 306 c43 169 77 309 77 312 0 3 -45 5 -100 5 l-99
0 -10 -37 c-6 -21 -37 -148 -71 -283 -33 -135 -64 -254 -70 -265 -5 -13 -9 91
-9 283 l-1 302 -100 0 c-71 0 -102 -4 -105 -12z"></path>
<path d="M1422 4203 c-41 -351 -142 -1243 -142 -1257 0 -15 11 -16 93 -14 l92
3 22 170 c12 94 22 176 22 183 1 13 141 18 141 5 0 -14 29 -276 35 -320 l6
-43 105 0 104 0 -5 38 c-7 45 -52 442 -105 927 -22 198 -43 370 -45 383 -5 22
-8 22 -159 22 l-153 0 -11 -97z m187 -436 c12 -148 19 -273 16 -278 -8 -12
-82 -12 -90 1 -3 5 1 82 10 172 8 90 17 192 20 228 7 84 17 152 20 148 2 -2
13 -124 24 -271z"></path>
<path d="M1824 4287 c-3 -8 -4 -47 -2 -88 l3 -74 88 -3 87 -3 0 -594 0 -595
105 0 105 0 2 593 3 592 88 3 87 3 0 89 0 90 -280 0 c-226 0 -282 -3 -286 -13z"></path>
<path d="M2450 3615 l0 -685 230 0 230 0 0 90 0 89 -122 3 -123 3 0 235 0 235
118 3 117 3 0 89 0 89 -117 3 -118 3 0 170 0 170 123 3 122 3 0 89 0 90 -230
0 -230 0 0 -685z"></path>
<path d="M2970 3615 l0 -685 90 0 c82 0 90 2 90 19 0 27 15 34 31 14 24 -29
97 -55 132 -47 53 11 83 31 101 68 14 30 16 89 16 496 0 406 -2 466 -16 496
-37 77 -148 92 -222 29 -17 -14 -33 -25 -36 -25 -3 0 -6 72 -6 160 l0 160 -90
0 -90 0 0 -685z m260 246 c16 -31 14 -742 -3 -765 -21 -29 -59 -17 -69 22 -11
42 -6 732 5 750 13 19 55 14 67 -7z"></path>
<path d="M3210 4291 c0 -6 15 -11 33 -13 l32 -3 5 -83 c3 -45 10 -82 15 -82 6
0 12 37 15 82 l5 83 33 3 c66 7 29 22 -53 22 -47 0 -85 -4 -85 -9z"></path>
<path d="M3399 4296 c-2 -2 -2 -46 1 -98 5 -96 23 -127 28 -50 l3 42 42 0 c53
0 67 -10 76 -50 9 -45 44 -48 73 -8 18 26 25 29 66 26 40 -3 49 -7 60 -30 13
-27 32 -38 32 -18 0 6 -18 49 -39 98 -27 59 -45 87 -57 87 -11 0 -29 -28 -54
-85 -42 -91 -60 -110 -60 -61 0 16 -4 32 -9 36 -6 3 -3 18 7 34 15 27 15 30
-1 55 -16 24 -23 26 -91 26 -40 0 -75 -2 -77 -4z m142 -32 c23 -28 -1 -49 -57
-49 -50 0 -64 14 -50 51 8 20 89 19 107 -2z m164 -34 c19 -36 13 -50 -20 -50
-13 0 -27 4 -30 10 -5 9 20 70 30 70 2 0 12 -14 20 -30z"></path>
<path d="M3802 4205 c2 -55 7 -95 13 -95 6 1 9 29 7 70 -1 39 2 70 7 70 4 0
36 -34 71 -75 34 -42 67 -74 74 -72 16 5 15 189 -1 195 -10 3 -13 -15 -13 -67
0 -39 -4 -71 -8 -71 -4 0 -34 32 -66 70 -79 96 -87 94 -84 -25z"></path>
<path d="M4190 4287 c0 -7 13 -51 28 -97 37 -111 55 -114 88 -16 13 38 26 71
28 73 2 2 15 -29 28 -69 34 -102 52 -100 90 12 32 95 34 110 14 110 -9 0 -20
-25 -31 -65 -10 -36 -22 -68 -26 -71 -4 -2 -18 27 -30 66 -20 60 -26 70 -44
68 -15 -2 -25 -19 -41 -66 -12 -34 -24 -65 -27 -68 -3 -3 -16 26 -28 65 -13
40 -29 71 -36 71 -7 0 -13 -6 -13 -13z"></path>
<path d="M4744 4287 c-3 -8 -4 -52 -2 -98 2 -67 6 -84 18 -84 10 0 16 12 18
38 l3 38 47 -3 c44 -3 48 -5 58 -38 6 -19 16 -36 23 -38 14 -5 15 53 0 80 -8
14 -8 23 0 31 15 15 14 60 -1 75 -17 17 -157 16 -164 -1z m143 -33 c9 -24 -23
-44 -69 -44 -36 0 -38 2 -38 30 0 29 1 30 50 30 38 0 52 -4 57 -16z"></path>
<path d="M4955 4287 c-3 -7 -5 -52 -3 -98 l3 -84 73 -3 c59 -2 72 0 72 13 0
12 -12 15 -55 15 l-54 0 -3 82 c-2 54 -7 83 -15 86 -7 2 -15 -3 -18 -11z"></path>
<path d="M5122 4203 l3 -98 54 -3 c95 -5 131 25 131 109 0 29 -7 47 -25 64
-21 22 -33 25 -95 25 l-71 0 3 -97z m142 45 c39 -56 5 -118 -64 -118 l-40 0 0
70 0 70 44 0 c35 0 48 -5 60 -22z"></path>
<path d="M5380 4133 l0 -167 -32 31 c-66 62 -157 63 -210 3 l-28 -30 0 -489 0
-489 26 -31 c49 -59 152 -62 204 -6 30 32 40 32 40 0 0 -25 0 -25 95 -25 l95
0 0 685 0 685 -95 0 -95 0 0 -167z m-10 -272 c16 -31 14 -742 -3 -765 -21 -29
-59 -17 -69 22 -11 42 -6 732 5 750 13 19 55 14 67 -7z"></path>
<path d="M5650 4200 l0 -100 95 0 95 0 0 100 0 100 -95 0 -95 0 0 -100z"></path>
<path d="M3661 4040 c-64 -13 -119 -54 -142 -103 -17 -39 -19 -71 -19 -457 0
-386 2 -418 19 -457 37 -80 152 -125 266 -104 88 16 141 53 164 114 7 18 11
176 11 453 0 456 0 452 -52 501 -50 47 -160 70 -247 53z m98 -144 c8 -9 10
-128 9 -421 -3 -376 -4 -409 -20 -419 -13 -8 -23 -8 -35 0 -17 10 -18 43 -21
420 -2 376 -1 410 15 422 22 16 38 15 52 -2z"></path>
<path d="M4203 4040 c-72 -15 -123 -51 -152 -107 -6 -13 -11 -76 -11 -157 l0
-136 95 0 95 0 0 119 c0 95 3 123 16 135 12 12 20 13 35 6 16 -9 19 -22 19
-83 0 -40 -5 -88 -10 -109 -13 -44 -66 -94 -150 -139 -100 -53 -100 -51 -100
-340 0 -233 1 -248 21 -272 24 -32 86 -50 136 -41 20 4 53 22 74 41 l38 34 3
-28 3 -28 93 -3 92 -3 0 473 c0 299 -4 487 -11 511 -13 48 -65 100 -115 114
-60 18 -125 22 -171 13z m107 -743 c0 -137 -3 -196 -12 -205 -18 -18 -56 -14
-68 7 -13 25 -13 281 0 318 10 26 56 73 73 73 4 0 7 -87 7 -193z"></path>
<path d="M4846 4040 c-16 -5 -42 -21 -57 -36 l-29 -28 0 27 0 27 -95 0 -95 0
0 -550 0 -550 95 0 95 0 0 464 c0 500 -1 492 52 484 23 -3 23 -3 28 -213 l5
-210 93 -3 93 -3 -3 265 c-3 247 -4 265 -23 286 -11 12 -27 25 -35 30 -26 14
-94 19 -124 10z"></path>
<path d="M6211 4040 c-18 -4 -46 -17 -62 -29 -35 -26 -39 -26 -39 -1 0 20 -5
21 -92 18 l-93 -3 0 -545 0 -545 93 -3 92 -3 0 456 c0 296 4 463 10 476 14 25
56 25 70 0 6 -13 10 -180 10 -475 l0 -456 95 0 96 0 -3 513 c-3 460 -5 515
-20 543 -24 45 -93 68 -157 54z"></path>
<path d="M6559 4041 c-47 -15 -66 -30 -83 -65 -14 -30 -16 -84 -16 -426 0
-346 2 -396 17 -427 34 -73 157 -94 218 -38 14 14 28 25 31 25 9 0 3 -252 -6
-271 -6 -10 -19 -19 -30 -19 -34 0 -50 38 -50 117 l0 73 -90 0 -90 0 0 -89 c0
-128 20 -169 105 -214 32 -17 58 -21 125 -21 67 0 93 4 125 21 48 25 80 58 94
96 7 19 11 227 11 628 l0 599 -95 0 c-94 0 -95 0 -95 -25 l0 -25 -42 29 c-48
33 -90 43 -129 32z m159 -173 c9 -9 12 -94 12 -319 0 -266 -2 -310 -16 -323
-8 -9 -19 -16 -24 -16 -5 0 -16 7 -24 16 -14 13 -16 57 -16 323 0 316 2 331
40 331 9 0 21 -5 28 -12z"></path>
<path d="M5650 3480 l0 -550 95 0 95 0 0 550 0 550 -95 0 -95 0 0 -550z"></path>
<path d="M0 200 l0 -110 313 0 c370 0 347 -8 347 113 0 113 19 107 -352 107
l-308 0 0 -110z m143 48 c3 -10 8 -10 21 1 21 18 26 13 19 -22 -5 -23 -8 -26
-21 -15 -12 10 -16 10 -19 1 -8 -24 -23 -13 -23 17 0 30 15 41 23 18z m83 -3
c-3 -9 0 -15 9 -15 9 0 12 6 9 15 -4 9 0 15 10 15 11 0 16 -9 16 -28 0 -25 -3
-28 -35 -28 -29 0 -35 4 -35 22 0 19 9 29 29 33 2 1 1 -6 -3 -14z m114 5 c0
-5 -4 -10 -10 -10 -5 0 -11 -12 -11 -27 l-2 -28 -4 28 c-2 15 -9 27 -14 27 -5
0 -9 5 -9 10 0 6 11 10 25 10 14 0 25 -4 25 -10z m80 -8 c0 -7 -10 -17 -22
-22 l-23 -9 23 0 c12 -1 22 -6 22 -12 0 -6 -12 -9 -27 -7 -27 3 -40 25 -30 51
6 16 57 15 57 -1z m60 -7 c0 -20 5 -25 25 -25 14 0 25 -5 25 -11 0 -6 -14 -9
-32 -7 -29 3 -33 7 -36 36 -2 18 1 32 7 32 6 0 11 -11 11 -25z m115 5 c-8 -9
-15 -22 -15 -28 0 -7 -4 -12 -10 -12 -5 0 -10 5 -10 12 0 6 -7 19 -15 28 -14
16 -13 17 25 17 38 0 39 -1 25 -17z m-493 -7 c8 -29 -2 -43 -28 -43 -30 0 -32
20 -1 21 21 1 21 1 -2 8 -37 10 -38 31 -3 31 20 0 31 -6 34 -17z m58 -63 c0
-5 -5 -10 -11 -10 -5 0 -7 5 -4 10 3 6 8 10 11 10 2 0 4 -4 4 -10z m105 -15
c0 -20 -40 -31 -50 -14 -12 18 2 36 27 34 15 -1 23 -8 23 -20z m71 0 c1 -7 -4
-16 -12 -19 -20 -8 -44 4 -44 21 0 9 6 13 15 10 8 -4 17 -2 21 4 7 12 17 4 20
-16z m38 9 c4 -10 2 -13 -6 -8 -8 5 -9 1 -4 -12 6 -15 4 -16 -5 -7 -6 6 -9 19
-6 27 8 20 13 20 21 0z m130 -7 c-5 -8 -3 -8 7 1 19 18 29 15 29 -8 0 -17 -5
-19 -26 -16 -15 3 -29 7 -31 10 -9 9 7 37 17 31 6 -4 7 -12 4 -18z m106 -11
c-1 -19 -2 -19 -11 -3 -5 9 -15 17 -20 17 -6 0 -7 -4 -4 -10 3 -5 -1 -10 -9
-10 -9 0 -16 6 -16 13 0 20 8 25 35 19 18 -3 25 -11 25 -26z m-556 8 c5 -14 4
-15 -9 -4 -17 14 -19 20 -6 20 5 0 12 -7 15 -16z m76 2 c0 -8 -7 -16 -15 -20
-18 -7 -45 3 -45 16 0 6 7 8 15 5 8 -4 17 -2 20 3 9 15 25 12 25 -4z m60 -7
c0 -11 -4 -17 -10 -14 -5 3 -10 13 -10 21 0 8 5 14 10 14 6 0 10 -9 10 -21z
m213 1 c3 -11 1 -18 -4 -14 -5 3 -9 12 -9 20 0 20 7 17 13 -6z m67 6 c0 -17
-14 -29 -23 -20 -8 8 3 34 14 34 5 0 9 -6 9 -14z"></path>
</g>
</svg>